<mxfile host="app.diagrams.net" modified="2021-02-26T17:37:36.441Z" agent="5.0 (Windows NT 10.0; Win64; x64) AppleWebKit/537.36 (KHTML, like Gecko) Chrome/88.0.4324.190 Safari/537.36" etag="PXdq-nbD31YaW6kZrCkb" version="14.4.3" type="github">
  <diagram id="d76VEIfB-LbtU5IRz4LR" name="Page-1">
    <mxGraphModel dx="2062" dy="1154" grid="1" gridSize="10" guides="1" tooltips="1" connect="1" arrows="1" fold="1" page="1" pageScale="1" pageWidth="827" pageHeight="1169" math="0" shadow="0">
      <root>
        <mxCell id="0" />
        <mxCell id="1" parent="0" />
        <mxCell id="hPrJqD4L9JSnPY2OcXhf-1" value="" style="rounded=0;whiteSpace=wrap;html=1;" vertex="1" parent="1">
          <mxGeometry x="225" y="70" width="411" height="810" as="geometry" />
        </mxCell>
        <mxCell id="hPrJqD4L9JSnPY2OcXhf-2" value="Клиент аптеки" style="shape=umlActor;verticalLabelPosition=bottom;verticalAlign=top;html=1;outlineConnect=0;" vertex="1" parent="1">
          <mxGeometry x="70" y="350" width="50" height="87.5" as="geometry" />
        </mxCell>
        <mxCell id="hPrJqD4L9JSnPY2OcXhf-14" value="Запустить приложение" style="ellipse;whiteSpace=wrap;html=1;" vertex="1" parent="1">
          <mxGeometry x="255" y="220" width="120" height="80" as="geometry" />
        </mxCell>
        <mxCell id="hPrJqD4L9JSnPY2OcXhf-15" value="&lt;font style=&quot;font-size: 18px&quot;&gt;Мобильное приложение Аптеки Ригла&lt;/font&gt;" style="text;html=1;strokeColor=none;fillColor=none;align=center;verticalAlign=middle;whiteSpace=wrap;rounded=0;" vertex="1" parent="1">
          <mxGeometry x="340.75" y="70" width="179.5" height="127.5" as="geometry" />
        </mxCell>
        <mxCell id="hPrJqD4L9JSnPY2OcXhf-16" value="Выбрать лекарства" style="ellipse;whiteSpace=wrap;html=1;" vertex="1" parent="1">
          <mxGeometry x="255" y="310" width="120" height="80" as="geometry" />
        </mxCell>
        <mxCell id="hPrJqD4L9JSnPY2OcXhf-18" value="Добавить препарат в корзину" style="ellipse;whiteSpace=wrap;html=1;" vertex="1" parent="1">
          <mxGeometry x="255" y="400" width="120" height="80" as="geometry" />
        </mxCell>
        <mxCell id="hPrJqD4L9JSnPY2OcXhf-21" value="Выбрать способ оплаты" style="ellipse;whiteSpace=wrap;html=1;" vertex="1" parent="1">
          <mxGeometry x="255" y="490" width="120" height="80" as="geometry" />
        </mxCell>
        <mxCell id="hPrJqD4L9JSnPY2OcXhf-22" value="Выбрать аптеку&lt;br&gt;для самовывоза" style="ellipse;whiteSpace=wrap;html=1;" vertex="1" parent="1">
          <mxGeometry x="255" y="584.5" width="120" height="80" as="geometry" />
        </mxCell>
        <mxCell id="hPrJqD4L9JSnPY2OcXhf-25" value="" style="endArrow=none;html=1;entryX=0;entryY=0.5;entryDx=0;entryDy=0;" edge="1" parent="1" target="hPrJqD4L9JSnPY2OcXhf-14">
          <mxGeometry width="50" height="50" relative="1" as="geometry">
            <mxPoint x="135" y="330" as="sourcePoint" />
            <mxPoint x="205" y="310" as="targetPoint" />
          </mxGeometry>
        </mxCell>
        <mxCell id="hPrJqD4L9JSnPY2OcXhf-26" value="" style="endArrow=none;html=1;entryX=0;entryY=0.5;entryDx=0;entryDy=0;" edge="1" parent="1" target="hPrJqD4L9JSnPY2OcXhf-16">
          <mxGeometry width="50" height="50" relative="1" as="geometry">
            <mxPoint x="135" y="350" as="sourcePoint" />
            <mxPoint x="255" y="290" as="targetPoint" />
          </mxGeometry>
        </mxCell>
        <mxCell id="hPrJqD4L9JSnPY2OcXhf-27" value="" style="endArrow=none;html=1;entryX=0;entryY=0.5;entryDx=0;entryDy=0;" edge="1" parent="1" target="hPrJqD4L9JSnPY2OcXhf-18">
          <mxGeometry width="50" height="50" relative="1" as="geometry">
            <mxPoint x="130" y="400" as="sourcePoint" />
            <mxPoint x="255" y="380" as="targetPoint" />
            <Array as="points" />
          </mxGeometry>
        </mxCell>
        <mxCell id="hPrJqD4L9JSnPY2OcXhf-29" value="" style="endArrow=none;html=1;entryX=0;entryY=0.5;entryDx=0;entryDy=0;" edge="1" parent="1" target="hPrJqD4L9JSnPY2OcXhf-21">
          <mxGeometry width="50" height="50" relative="1" as="geometry">
            <mxPoint x="140" y="462.5" as="sourcePoint" />
            <mxPoint x="170" y="512.5" as="targetPoint" />
            <Array as="points" />
          </mxGeometry>
        </mxCell>
        <mxCell id="hPrJqD4L9JSnPY2OcXhf-31" style="edgeStyle=orthogonalEdgeStyle;rounded=0;orthogonalLoop=1;jettySize=auto;html=1;exitX=0.5;exitY=1;exitDx=0;exitDy=0;" edge="1" parent="1" source="hPrJqD4L9JSnPY2OcXhf-1" target="hPrJqD4L9JSnPY2OcXhf-1">
          <mxGeometry relative="1" as="geometry" />
        </mxCell>
        <mxCell id="hPrJqD4L9JSnPY2OcXhf-34" value="Фармацевт" style="shape=umlActor;verticalLabelPosition=bottom;verticalAlign=top;html=1;outlineConnect=0;" vertex="1" parent="1">
          <mxGeometry x="690" y="350" width="50" height="87.5" as="geometry" />
        </mxCell>
        <mxCell id="hPrJqD4L9JSnPY2OcXhf-36" value="" style="endArrow=none;html=1;entryX=0;entryY=0.5;entryDx=0;entryDy=0;" edge="1" parent="1" target="hPrJqD4L9JSnPY2OcXhf-22">
          <mxGeometry width="50" height="50" relative="1" as="geometry">
            <mxPoint x="130" y="490" as="sourcePoint" />
            <mxPoint x="130" y="570" as="targetPoint" />
          </mxGeometry>
        </mxCell>
        <mxCell id="hPrJqD4L9JSnPY2OcXhf-38" value="Согласовать детали заказа" style="ellipse;whiteSpace=wrap;html=1;" vertex="1" parent="1">
          <mxGeometry x="499.5" y="437.5" width="120.5" height="80" as="geometry" />
        </mxCell>
        <mxCell id="hPrJqD4L9JSnPY2OcXhf-41" value="&lt;span&gt;Получить уникальный номер&lt;/span&gt;" style="ellipse;whiteSpace=wrap;html=1;" vertex="1" parent="1">
          <mxGeometry x="255" y="680" width="120" height="80" as="geometry" />
        </mxCell>
        <mxCell id="hPrJqD4L9JSnPY2OcXhf-43" value="" style="endArrow=none;html=1;entryX=0;entryY=0.5;entryDx=0;entryDy=0;" edge="1" parent="1" target="hPrJqD4L9JSnPY2OcXhf-41">
          <mxGeometry width="50" height="50" relative="1" as="geometry">
            <mxPoint x="110" y="510" as="sourcePoint" />
            <mxPoint x="170" y="620" as="targetPoint" />
          </mxGeometry>
        </mxCell>
        <mxCell id="hPrJqD4L9JSnPY2OcXhf-45" value="" style="endArrow=none;html=1;exitX=1;exitY=0.5;exitDx=0;exitDy=0;" edge="1" parent="1">
          <mxGeometry width="50" height="50" relative="1" as="geometry">
            <mxPoint x="620.5" y="367.5" as="sourcePoint" />
            <mxPoint x="670" y="390" as="targetPoint" />
          </mxGeometry>
        </mxCell>
        <mxCell id="hPrJqD4L9JSnPY2OcXhf-47" value="Получить уникальный номер заказа" style="ellipse;whiteSpace=wrap;html=1;" vertex="1" parent="1">
          <mxGeometry x="499.5" y="330" width="120" height="80" as="geometry" />
        </mxCell>
        <mxCell id="hPrJqD4L9JSnPY2OcXhf-48" value="Уведомить о готовности заказа" style="ellipse;whiteSpace=wrap;html=1;" vertex="1" parent="1">
          <mxGeometry x="499.5" y="540" width="120" height="80" as="geometry" />
        </mxCell>
        <mxCell id="hPrJqD4L9JSnPY2OcXhf-49" value="" style="endArrow=none;html=1;" edge="1" parent="1">
          <mxGeometry width="50" height="50" relative="1" as="geometry">
            <mxPoint x="619.5" y="480" as="sourcePoint" />
            <mxPoint x="680" y="420" as="targetPoint" />
          </mxGeometry>
        </mxCell>
        <mxCell id="hPrJqD4L9JSnPY2OcXhf-51" value="" style="endArrow=none;html=1;" edge="1" parent="1">
          <mxGeometry width="50" height="50" relative="1" as="geometry">
            <mxPoint x="620" y="585" as="sourcePoint" />
            <mxPoint x="680" y="460" as="targetPoint" />
          </mxGeometry>
        </mxCell>
      </root>
    </mxGraphModel>
  </diagram>
</mxfile>
